<?xml version="1.0" encoding="utf-8"?>
<!-- Generator: Adobe Illustrator 27.8.1, SVG Export Plug-In . SVG Version: 6.00 Build 0)  -->
<svg version="1.1" id="Layer_1" xmlns="http://www.w3.org/2000/svg" xmlns:xlink="http://www.w3.org/1999/xlink" x="0px" y="0px"
	 viewBox="0 0 200 200" style="enable-background:new 0 0 200 200;" xml:space="preserve">
<style type="text/css">
	.st0{fill:#C0C0C0;}
	.st1{fill:#FFFFFF;}
	.st2{fill:#FF0000;}
	.st3{fill:#F46A0C;}
	.st4{fill:#F4FF0C;}
	.st5{fill:#00E710;}
	.st6{fill:#17E9FF;}
	.st7{fill:#0009D0;}
	.st8{fill:#C717FF;}
</style>
<g>
	<path class="st0" d="M55.67,78.03c-6.63-6.41-11.75-14.66-13.19-23.77s1.19-19.06,7.9-25.38c8.06-7.59,20.17-8.81,31.23-8.3
		c2.75,0.13,5.66,0.4,7.87,2.03c2.46,1.82,3.53,4.93,4.27,7.9c1.64,6.57,2.33,13.39,2.01,20.15c2.77-5.64,5.83-11.35,10.66-15.38
		c9.03-7.53,22.09-7.54,33.71-5.73c5.08,0.79,10.2,1.88,14.74,4.3c4.54,2.41,8.49,6.32,9.98,11.24c1.58,5.24,0.19,11.04-2.61,15.75
		s-6.89,8.5-11.05,12.06c12.77,7.33,23.92,18.83,27.26,33.17c3.34,14.34-3.03,31.35-16.58,37.13c-2.33,0.99-4.84,1.65-7.38,1.63
		c-6.72-0.05-12.43-4.67-17.53-9.06c-1.96,11.61-4.89,23.05-8.76,34.17c-0.81,2.34-1.74,4.78-3.62,6.39
		c-2.34,2.01-5.65,2.33-8.73,2.37c-16.02,0.19-32.05-5.23-44.67-15.09c-2.44-1.91-4.88-4.15-5.7-7.15c-0.6-2.17-0.27-4.47,0.09-6.68
		c1.13-6.98,2.57-13.91,4.3-20.77c-9.13,2.91-18.98,2-28.51,1.06c-3.11-0.31-6.28-0.62-9.17-1.83c-8.71-3.63-12.4-14.22-12.26-23.66
		c0.14-9.18,3.27-18.73,10.3-24.63c7.03-5.9,18.37-7,25.26-0.92"/>
	<g>
		<path d="M56.73,76.97c-5.68-5.54-10.25-12.36-12.19-20.13c-1.8-7.21-1.02-15.13,2.73-21.61c3.84-6.62,10.51-10.41,17.82-12.05
			c3.76-0.84,7.61-1.16,11.46-1.2c1.89-0.02,3.78,0.02,5.66,0.13c1.87,0.11,3.85,0.29,5.54,1.18c3.98,2.1,4.74,7.81,5.48,11.78
			c0.96,5.14,1.28,10.38,1.05,15.6c-0.06,1.45,2.14,2.1,2.8,0.76c3.24-6.58,6.9-13.3,13.4-17.16c5.96-3.54,13.07-4.39,19.88-4.17
			c3.6,0.11,7.18,0.53,10.74,1.12c4.02,0.68,8.11,1.57,11.82,3.32c6.39,3.02,11.48,8.7,11.09,16.13
			c-0.48,8.99-7.46,15.68-13.86,21.17c-0.74,0.63-0.48,1.9,0.3,2.36c12.6,7.27,24.05,18.83,26.85,33.59
			c2.38,12.53-2.86,27.41-14.65,33.41c-4.21,2.14-8.78,2.79-13.27,1.14c-4.3-1.58-7.92-4.68-11.35-7.62
			c-0.77-0.66-2.3-0.54-2.51,0.66c-1.57,9.25-3.74,18.4-6.52,27.37c-0.68,2.2-1.4,4.4-2.16,6.57c-0.62,1.78-1.26,3.67-2.49,5.13
			c-2.57,3.04-7.22,2.82-10.83,2.74c-8.31-0.18-16.54-1.91-24.26-4.95c-3.9-1.54-7.65-3.45-11.21-5.66
			c-3.33-2.07-7.02-4.39-9.5-7.49c-3.19-3.98-1.49-9.35-0.65-13.89c0.97-5.3,2.13-10.56,3.44-15.78c0.27-1.07-0.72-2.19-1.85-1.85
			c-8.75,2.72-17.98,1.99-26.96,1.12c-4.11-0.4-8.37-0.71-11.95-2.97c-2.71-1.71-4.72-4.28-6.16-7.11
			c-3.13-6.16-3.6-13.6-2.39-20.32c1.29-7.13,4.7-14.45,10.95-18.51c6.31-4.1,15.48-4.83,21.45,0.32c1.46,1.25,3.59-0.86,2.12-2.12
			c-5.98-5.16-14.53-5.62-21.63-2.6c-7.55,3.21-12.51,10.32-14.81,17.99c-2.23,7.44-2.4,15.87,0.21,23.24
			c1.23,3.46,3.07,6.76,5.72,9.32c3.02,2.92,6.8,4.48,10.91,5.12c5.42,0.84,11.01,1.27,16.49,1.41c5.67,0.14,11.39-0.31,16.83-2
			c-0.62-0.62-1.23-1.23-1.85-1.85c-1.26,4.99-2.36,10.01-3.31,15.07c-0.45,2.4-0.9,4.81-1.23,7.24c-0.31,2.29-0.41,4.66,0.45,6.85
			c1.53,3.92,5.15,6.55,8.46,8.91c3.69,2.63,7.64,4.91,11.76,6.79c8.11,3.71,16.85,5.96,25.76,6.56c4.13,0.28,8.85,0.61,12.75-1.06
			c4.12-1.77,5.62-5.83,6.97-9.78c3.68-10.77,6.47-21.82,8.37-33.04c-0.84,0.22-1.67,0.44-2.51,0.66c3.34,2.86,6.79,5.78,10.82,7.62
			c4.16,1.9,8.6,2.39,13.02,1.1c7.02-2.05,12.77-7.21,16.34-13.5c3.58-6.3,5.19-13.77,4.64-20.98c-0.6-7.8-3.79-15.27-8.36-21.56
			c-5.37-7.4-12.52-13.36-20.42-17.92c0.1,0.79,0.2,1.57,0.3,2.36c6.3-5.4,12.68-11.7,14.35-20.18c0.77-3.91,0.44-7.9-1.26-11.53
			c-1.57-3.36-4.26-6.12-7.29-8.21c-6.79-4.69-15.71-5.98-23.76-6.69c-7.57-0.67-15.46-0.25-22.49,2.87
			c-8.56,3.8-13.35,11.62-17.33,19.7c0.93,0.25,1.86,0.5,2.8,0.76c0.21-5.02-0.1-10.04-0.91-15c-0.71-4.27-1.5-9.22-4.33-12.67
			c-2.79-3.42-7.27-3.8-11.38-3.95c-4.25-0.16-8.51-0.02-12.73,0.58c-8.05,1.15-16,4.43-21.13,10.98c-5.05,6.47-6.97,15.03-5.9,23.1
			c1.3,9.8,6.72,18.57,13.71,25.38C55.99,80.44,58.11,78.32,56.73,76.97L56.73,76.97z"/>
	</g>
</g>
<g>
	<path class="st1" d="M104.38,73.03c-3.86-3.03-9.35-2.65-14.14-1.58c-3.33,0.75-6.64,1.77-9.56,3.53c-3.43,2.07-6.22,5.1-8.23,8.57
		c-5.21,8.99-4.82,20.67,0.06,29.84c1.64,3.08,3.77,5.93,6.47,8.13c4.18,3.4,9.5,5.07,14.8,6.03c4.85,0.88,9.81,1.23,14.72,0.82
		c3.81-0.32,7.67-1.13,10.9-3.18c3.14-1.99,5.49-5.03,7.32-8.27c4.99-8.84,6.29-20.26,1.31-29.11c-5.07-9-15.41-13.7-25.49-15.97"/>
	<g>
		<path d="M105.14,71.73c-5.31-4.01-12.86-2.63-18.75-0.83c-6.63,2.02-12.04,6.17-15.43,12.24c-6.42,11.49-4.38,27.01,4.26,36.83
			c4.66,5.29,11.38,7.79,18.16,9.03c7.15,1.3,15.18,1.83,22.2-0.42c6.53-2.1,10.93-7.35,13.73-13.43
			c2.73-5.91,3.97-12.53,3.05-19.01c-1.02-7.12-4.91-13.22-10.58-17.55c-5.49-4.2-12.15-6.66-18.84-8.18
			c-1.88-0.43-2.68,2.46-0.8,2.89c10.4,2.37,21.95,7.49,25.97,18.21c2.1,5.61,1.97,11.79,0.32,17.5
			c-1.57,5.46-4.61,11.44-9.45,14.68c-5.42,3.62-12.79,3.69-19.05,3.18c-6.26-0.5-12.97-1.79-18.31-5.27
			c-5.07-3.3-8.42-8.89-10.11-14.6c-1.69-5.69-1.79-11.84-0.02-17.53c1.99-6.4,6.49-11.95,12.72-14.61c3.21-1.37,6.84-2.3,10.32-2.6
			c3.23-0.29,6.45,0.06,9.11,2.07C105.16,75.49,106.66,72.88,105.14,71.73L105.14,71.73z"/>
	</g>
</g>
<g>
	<g>
		<path class="st2" d="M75.17,111.76c2.78-6.55,6.62-12.57,10.78-18.33c2.05-2.83,4.17-5.61,6.31-8.37
			c2.11-2.74,4.59-5.44,6.09-8.59c0.55-1.15,1.35-2.68,0.63-3.93c-0.83-1.45-2.71-1.22-4.11-1.11c-3.11,0.25-6.23,0.69-9.22,1.61
			c-2.94,0.91-5.76,2.28-8.05,4.36c-2.5,2.27-4.19,5.33-5.49,8.4c-2.98,7.05-3.42,14.95-1.22,22.29c0.46,1.53,2.35,1.31,2.89,0
			C79.2,95,87.96,83.62,96.45,72.42c-0.86-0.5-1.73-1.01-2.59-1.51c-5.62,7.51-11.58,14.76-17.84,21.76
			c0.79,0.61,1.57,1.21,2.36,1.82c3.36-6.37,7.39-12.35,12.01-17.87c1.26-1.51-0.61-3.3-2.12-2.12c-4.98,3.91-8.42,9.23-11.7,14.56
			c0.91,0.39,1.83,0.77,2.74,1.16c0.91-3.21,2.01-6.35,3.29-9.43c0.51-1.23-1.18-2.36-2.2-1.69c-3.14,2.02-5.35,5.04-6.49,8.59
			c-1.38,4.27-1,8.84-0.58,13.23c0.98-0.13,1.96-0.27,2.95-0.4c-0.78-3.79,0.89-7.43,3.72-9.92c-0.84-0.49-1.67-0.97-2.51-1.46
			c-1,3.29-1.99,6.58-2.99,9.88c-0.34,1.13,0.77,2.1,1.85,1.85c3.68-0.87,6.24-3.55,8.27-6.59c2.43-3.66,4.61-7.42,7.34-10.89
			c1.45-1.83,2.97-3.61,4.55-5.32c0.69-0.74,1.61-1.45,1.72-2.52c0.09-0.84-0.33-1.56-1.07-1.96c-1.62-0.88-3.72,0.18-5,1.21
			c-1.48,1.19-2.36,2.85-2.49,4.75c-0.11,1.64,2,1.83,2.8,0.76c0.62-0.84,1.06-1.75,1.36-2.75c0.26-0.87-0.48-1.98-1.45-1.9
			c-4.3,0.36-8.43,1.47-12.29,3.39c0.68,0.68,1.37,1.37,2.05,2.05c0.66-1.12,1.57-1.9,2.72-2.51c-0.5-0.86-1.01-1.73-1.51-2.59
			c-4.22,2.71-6.42,7.05-8.14,11.61c-1.02,2.7-1.98,5.41-2.97,8.12c-1,2.76-1.92,5.66-0.93,8.55c0.35,1.03,1.68,1.52,2.51,0.66
			c4.16-4.31,7.93-8.97,11.26-13.95c1.02-1.52-1.13-2.82-2.36-1.82c-1.37,1.11-2.49,2.45-3.32,4.01c0.93,0.25,1.86,0.5,2.8,0.76
			c0.55-6.6,2.63-12.96,5.91-18.71c0.81-1.42-1.27-3.2-2.36-1.82c-4.02,5.08-6.53,10.72-7.86,17.03c-0.34,1.61-0.68,3.23-1.26,4.77
			c-0.57,1.54-1.38,2.97-2.11,4.43c-1.49,2.98-2.64,6.11-3.35,9.37c0.96,0.27,1.93,0.53,2.89,0.8c0.22-1.61,0.45-3.22,0.67-4.83
			c0.11-0.81-0.2-1.6-1.05-1.85c-0.7-0.2-1.73,0.25-1.85,1.05c-0.22,1.61-0.45,3.22-0.67,4.83c-0.26,1.85,2.47,2.73,2.89,0.8
			c0.69-3.16,1.79-6.16,3.25-9.05c1.43-2.82,2.61-5.55,3.29-8.65c0.63-2.92,1.27-5.79,2.45-8.54c1.24-2.88,2.88-5.59,4.82-8.05
			c-0.79-0.61-1.57-1.21-2.36-1.82c-3.55,6.23-5.72,13.08-6.32,20.22c-0.12,1.49,2.12,2.03,2.8,0.76c0.72-1.36,1.66-2.44,2.85-3.4
			c-0.79-0.61-1.57-1.21-2.36-1.82c-3.19,4.77-6.81,9.21-10.79,13.34c0.84,0.22,1.67,0.44,2.51,0.66c-0.86-2.52,0.22-5.04,1.09-7.4
			c0.89-2.44,1.77-4.89,2.68-7.33c1.45-3.9,3.27-7.83,6.89-10.16c1.62-1.04,0.2-3.5-1.51-2.59c-1.58,0.84-2.88,2.04-3.79,3.58
			c-0.8,1.36,0.76,2.7,2.05,2.05c3.37-1.68,7.03-2.67,10.78-2.98c-0.48-0.63-0.96-1.27-1.45-1.9c-0.23,0.76-0.59,1.4-1.06,2.04
			c0.93,0.25,1.86,0.5,2.8,0.76c0.09-1.31,1.07-2.41,2.21-2.97c0.18-0.09,0.76-0.18,0.84-0.3c-0.13-0.44-0.27-0.88-0.4-1.32
			c-0.16,0.16-0.31,0.33-0.47,0.5c-0.57,0.61-1.13,1.22-1.69,1.84c-2.32,2.61-4.5,5.36-6.5,8.23c-1.74,2.5-3.2,5.17-4.93,7.67
			c-1.55,2.25-3.46,4.14-6.18,4.79c0.62,0.62,1.23,1.23,1.85,1.85c1-3.29,1.99-6.58,2.99-9.88c0.46-1.51-1.44-2.4-2.51-1.46
			c-3.66,3.22-5.48,8.02-4.49,12.84c0.34,1.63,3.11,1.3,2.95-0.4c-0.64-6.88-0.98-14.99,5.59-19.23c-0.73-0.56-1.47-1.13-2.2-1.69
			c-1.28,3.08-2.38,6.22-3.29,9.43c-0.47,1.66,1.86,2.59,2.74,1.16c3.16-5.13,6.43-10.19,11.23-13.95
			c-0.71-0.71-1.41-1.41-2.12-2.12c-4.78,5.72-8.99,11.89-12.48,18.48c-0.76,1.44,1.17,3.14,2.36,1.82
			c6.43-7.18,12.53-14.64,18.31-22.36c1.16-1.55-1.44-3.03-2.59-1.51c-8.68,11.44-17.43,23.01-22.95,36.37c0.96,0,1.93,0,2.89,0
			c-1.75-5.86-1.71-12.05,0.17-17.88c1.81-5.61,5-10.57,10.63-12.83c2.56-1.02,5.31-1.6,8.04-1.93c0.61-0.07,1.22-0.14,1.84-0.19
			c0.45-0.04,1.56,0.11,1.93-0.13c0.07,0,0.14,0,0.22,0c-0.26-0.73-0.44-0.79-0.52-0.18c-0.14,0.21-0.23,0.57-0.34,0.81
			c-0.36,0.78-0.81,1.52-1.29,2.23c-1.72,2.61-3.77,5.02-5.67,7.49c-1.93,2.51-3.85,5.03-5.7,7.61
			c-4.06,5.64-7.79,11.55-10.52,17.96c-0.32,0.75-0.22,1.6,0.54,2.05C73.75,112.67,74.86,112.5,75.17,111.76L75.17,111.76z"/>
	</g>
</g>
<g>
	<g>
		<path class="st3" d="M75.9,114.34c0.46-4.14,2.48-7.89,4.53-11.44c2.01-3.49,4.05-6.98,6.23-10.36c2.19-3.39,4.55-6.67,7.26-9.66
			c2.59-2.85,5.79-5.3,7.5-8.83c0.83-1.72-1.71-3.25-2.59-1.51c-7.38,14.5-15.65,28.51-23.92,42.51c0.91,0.39,1.83,0.77,2.74,1.16
			c2.29-10.47,7.16-20.25,14.21-28.32c-0.79-0.61-1.57-1.21-2.36-1.82c-1.37,3.03-2.73,6.05-4.1,9.08c0.91,0.39,1.83,0.77,2.74,1.16
			c1.57-4.63,3.79-8.97,6.25-13.18c1.77-3.04,4.13-7.82,8.23-7.83c-0.43-0.75-0.86-1.5-1.3-2.26c-5.1,7.15-8.82,15.1-12.98,22.8
			c-2.04,3.78-4.19,7.49-6.65,11.01c-2.38,3.4-4.91,6.7-6.06,10.76c-0.29,1.02,0.5,1.8,1.45,1.9c4.04,0.42,4.47-4.99,5.72-7.61
			c1.54-3.21,3.69-6.08,5.63-9.05c3.72-5.7,6.49-11.94,10.12-17.68c2.06-3.26,4.42-6.29,7.32-8.85c1.45-1.28-0.68-3.4-2.12-2.12
			c-6.26,5.55-9.96,13.13-13.91,20.35c-2.06,3.77-4.38,7.31-6.74,10.89c-1.17,1.77-2.29,3.59-3.16,5.53
			c-0.46,1.02-0.86,2.06-1.19,3.13c-0.27,0.89-0.45,2.54-1.68,2.41c0.48,0.63,0.96,1.27,1.45,1.9c1.1-3.91,3.71-7.1,5.99-10.38
			c2.45-3.54,4.59-7.27,6.62-11.06c4.07-7.58,7.76-15.39,12.76-22.41c0.68-0.95-0.23-2.26-1.3-2.26c-4.89,0.02-7.88,4.37-10.13,8.14
			c-2.86,4.8-5.45,9.77-7.25,15.07c-0.54,1.59,2.04,2.72,2.74,1.16c1.37-3.03,2.73-6.05,4.1-9.08c0.64-1.43-1.14-3.21-2.36-1.82
			c-7.39,8.46-12.59,18.67-14.99,29.65c-0.36,1.63,1.85,2.67,2.74,1.16c8.27-14,16.55-28.01,23.92-42.51
			c-0.86-0.5-1.73-1.01-2.59-1.51c-1.77,3.66-5.28,6.18-7.91,9.21c-2.72,3.13-5.11,6.53-7.33,10.03c-2.24,3.53-4.37,7.14-6.42,10.78
			c-2.08,3.7-3.81,7.54-4.28,11.8C72.69,116.25,75.69,116.24,75.9,114.34L75.9,114.34z"/>
	</g>
</g>
<g>
	<g>
		<path class="st3" d="M84.69,100.91c0.15-0.9,0.41-1.78,0.76-2.62c-0.05,0.12-0.1,0.24-0.15,0.36c0.34-0.81,0.77-1.59,1.29-2.31
			c0.21-0.3,0.25-0.81,0.15-1.16c-0.1-0.35-0.36-0.72-0.69-0.9c-0.77-0.41-1.57-0.15-2.05,0.54c-1.11,1.56-1.87,3.4-2.19,5.28
			c-0.07,0.41-0.07,0.79,0.15,1.16c0.18,0.31,0.54,0.61,0.9,0.69C83.57,102.12,84.55,101.74,84.69,100.91L84.69,100.91z"/>
	</g>
</g>
<g>
	<g>
		<path class="st4" d="M81.16,120.7c6.6-12.46,13.9-24.47,22.22-35.86c0.77-1.05-0.51-2.61-1.69-2.2c-2.56,0.88-5.47,1.99-6.72,4.6
			c-1.11,2.31-0.68,5.02,1.43,6.55c0.66,0.48,1.67,0.1,2.05-0.54c2.6-4.33,4.97-8.8,7.08-13.39c0.62-1.35-0.65-2.77-2.05-2.05
			c-2.44,1.26-4.43,3.15-5.86,5.5c-0.71,1.16,0.46,2.49,1.69,2.2c2.5-0.58,3.94-2.67,5.2-4.74c0.6-0.98,1.26-2.22,2.33-2.76
			c0.65-0.33,1.73-0.48,2.18,0.24c0.08-0.61,0.16-1.21,0.23-1.82c-1.81,1.77-3.62,3.54-5.43,5.3c-1.38,1.35,0.74,3.47,2.12,2.12
			c1.81-1.77,3.62-3.54,5.43-5.3c0.46-0.45,0.58-1.26,0.23-1.82c-1.53-2.46-4.88-2.48-7.01-0.81c-1.25,0.98-2.07,2.34-2.89,3.68
			c-0.79,1.29-1.64,2.65-3.21,3.02c0.56,0.73,1.13,1.47,1.69,2.2c1.17-1.92,2.79-3.39,4.78-4.42c-0.68-0.68-1.37-1.37-2.05-2.05
			c-2.11,4.59-4.48,9.06-7.08,13.39c0.68-0.18,1.37-0.36,2.05-0.54c-1.01-0.73-0.51-2.46,0.12-3.24c1.08-1.33,2.9-1.89,4.45-2.43
			c-0.56-0.73-1.13-1.47-1.69-2.2c-8.31,11.39-15.62,23.4-22.22,35.86C77.67,120.89,80.25,122.41,81.16,120.7L81.16,120.7z"/>
	</g>
</g>
<g>
	<g>
		<path class="st4" d="M83.51,122.48c4.52-7.63,9.04-15.26,13.56-22.89c0.75-1.26-0.77-2.86-2.05-2.05
			c-3.27,2.07-4.12,5.73-6.01,8.85c-2.08,3.41-5.59,5.65-7.45,9.24c-0.75,1.43,1.2,3.18,2.36,1.82c3.1-3.68,4.76-8.13,7.02-12.31
			c2.44-4.51,5.94-8.2,9.47-11.86c1.13-1.18-0.39-3.39-1.82-2.36c-2.32,1.69-3.68,4.04-3.99,6.89c-0.2,1.82,2.38,1.83,2.95,0.4
			c2.91-7.35,7.45-13.97,13.18-19.4c0.54-0.51,0.63-1.63,0-2.12c-2.84-2.21-6.77-0.01-5.93,3.64c0.39,1.69,2.9,1.26,2.95-0.4
			c0.05-1.7-0.11-3.37-0.44-5.04c-0.48,0.63-0.96,1.27-1.45,1.9c1.49,0.12,3.88,0.55,4.94,1.73c0.62,0.68-0.15,1.61-0.51,2.3
			c-0.48,0.93-0.95,1.85-1.43,2.78c-1.87,3.63-3.75,7.25-5.66,10.86c-3.79,7.15-7.63,14.33-11.94,21.18
			c-1.04,1.66-2.2,3.18-3.82,4.31c-1.51,1.05-3.05,2.02-3.94,3.69c0.56-0.23,1.13-0.46,1.69-0.69c-1.84-0.42-3.17-1.93-3.21-3.84
			c-0.04-1.93-3.04-1.93-3,0c0.07,3.19,2.28,6.02,5.41,6.73c0.63,0.14,1.37-0.09,1.69-0.69c0.83-1.56,2.56-2.32,3.9-3.38
			c1.53-1.21,2.71-2.8,3.75-4.44c2.41-3.79,4.61-7.73,6.79-11.65c4.47-8.02,8.93-16.13,12.9-24.41c1.02-2.12,0.78-4.05-1.22-5.43
			c-1.85-1.28-4.13-1.87-6.34-2.05c-1.04-0.08-1.62,1.02-1.45,1.9c0.27,1.41,0.37,2.81,0.33,4.24c0.98-0.13,1.96-0.27,2.95-0.4
			c-0.12-0.52,0.36-1.15,0.91-0.72c0-0.71,0-1.41,0-2.12c-6.13,5.81-10.85,12.88-13.95,20.72c0.98,0.13,1.96,0.27,2.95,0.4
			c0.19-1.7,1.12-3.3,2.5-4.3c-0.61-0.79-1.21-1.57-1.82-2.36c-3.5,3.63-7.03,7.33-9.53,11.73c-2.35,4.12-3.87,8.77-6.96,12.44
			c0.79,0.61,1.57,1.21,2.36,1.82c1.74-3.33,4.93-5.53,7.04-8.6c1.83-2.66,2.49-6.6,5.35-8.41c-0.68-0.68-1.37-1.37-2.05-2.05
			c-4.52,7.63-9.04,15.26-13.56,22.89C79.93,122.64,82.53,124.15,83.51,122.48L83.51,122.48z"/>
	</g>
</g>
<g>
	<g>
		<path class="st4" d="M85.18,122.39c8.16-9.82,9.8-23.55,18.62-32.87c-0.79-0.61-1.57-1.21-2.36-1.82
			c-5.3,10.04-10.42,20.17-15.36,30.38c-0.69,1.44,1.16,3.18,2.36,1.82c2.22-2.53,3.99-5.37,5.62-8.3c1.71-3.06,3.43-6.14,4.87-9.33
			c1.43-3.16,2.35-6.55,4.12-9.54c1.62-2.74,3.53-5.27,4.43-8.36c0.54-1.86-2.33-2.64-2.89-0.8c-1.62,5.29-2.91,10.67-3.85,16.12
			c0.96,0,1.93,0,2.89,0c-1.13-3.44,1.28-6.55,3.11-9.25c2-2.93,3.57-6.09,4.7-9.46c0.44-1.32-1.11-2.26-2.2-1.69
			c-1.34,0.69-2.51,1.63-3.46,2.81c-1.2,1.49,0.91,3.63,2.12,2.12c0.8-1,1.71-1.75,2.85-2.34c-0.73-0.56-1.47-1.13-2.2-1.69
			c-1.26,3.75-3.22,6.96-5.4,10.22c-1.99,2.97-3.59,6.49-2.41,10.09c0.42,1.29,2.62,1.56,2.89,0c0.94-5.45,2.23-10.83,3.85-16.12
			c-0.96-0.27-1.93-0.53-2.89-0.8c-0.86,2.96-2.82,5.37-4.34,8c-1.67,2.9-2.54,6.15-3.91,9.18c-1.39,3.06-3.03,6.01-4.66,8.94
			c-1.57,2.83-3.23,5.63-5.37,8.08c0.79,0.61,1.57,1.21,2.36,1.82c4.94-10.22,10.07-20.34,15.36-30.38c0.77-1.46-1.14-3.1-2.36-1.82
			c-8.88,9.38-10.46,23.05-18.62,32.87C81.83,121.74,83.94,123.87,85.18,122.39L85.18,122.39z"/>
	</g>
</g>
<g>
	<g>
		<path class="st4" d="M99.2,102.45c0.93-1.38,1.86-2.76,2.78-4.14c0.21-0.31,0.25-0.8,0.15-1.16c-0.1-0.35-0.36-0.72-0.69-0.9
			c-0.76-0.4-1.58-0.16-2.05,0.54c-0.93,1.38-1.86,2.76-2.78,4.14c-0.21,0.31-0.25,0.8-0.15,1.16c0.1,0.35,0.36,0.73,0.69,0.9
			C97.9,103.39,98.73,103.15,99.2,102.45L99.2,102.45z"/>
	</g>
</g>
<g>
	<g>
		<path class="st3" d="M94.39,92.45c2.4-2.62,3.71-5.88,5.42-8.94c0.82-1.46,1.75-2.77,2.92-3.97c1.23-1.26,2.47-2.57,2.87-4.34
			c0.42-1.88-2.47-2.68-2.89-0.8c-0.33,1.46-1.55,2.43-2.54,3.48c-1.16,1.23-2.12,2.64-2.95,4.11c-1.57,2.81-2.75,5.93-4.95,8.33
			C90.97,91.75,93.08,93.88,94.39,92.45L94.39,92.45z"/>
	</g>
</g>
<g>
	<g>
		<path class="st5" d="M89.28,125.66c3.35-2.22,5.44-5.63,7.46-9.02c2.34-3.93,4.55-7.93,6.65-11.99
			c4.22-8.12,8.05-16.43,11.89-24.74c0.8-1.74-1.78-3.27-2.59-1.51c-3.7,8.02-7.4,16.05-11.45,23.9c-2.02,3.92-4.13,7.8-6.37,11.61
			c-1.93,3.29-3.85,7-7.11,9.16C86.16,124.14,87.66,126.73,89.28,125.66L89.28,125.66z"/>
	</g>
</g>
<g>
	<g>
		<path class="st5" d="M113.6,79.77c0.5,0.38,0.99,0.76,1.49,1.14c0.21,0.16,1.47,0.91,1.49,1.14c0.02,0.21-0.57,1.14-0.69,1.39
			c-0.27,0.6-0.55,1.2-0.82,1.8c-1.03,2.25-2.05,4.51-3.08,6.76c-2.16,4.73-4.33,9.45-6.53,14.16c-1.79,3.84-3.61,7.7-6.02,11.2
			c-1.19,1.72-2.53,3.34-4.07,4.76c-0.76,0.71-3.13,3.05-4.23,1.86c0.13,0.49,0.26,0.97,0.39,1.46c0.22-0.61,1.14-0.85,1.68-1.06
			c0.71-0.28,1.44-0.55,2.08-0.97c1.69-1.1,2.64-3.02,3.64-4.7c2.28-3.84,4.44-7.75,6.47-11.72c4.13-8.06,7.74-16.39,10.84-24.89
			c-0.98-0.13-1.96-0.27-2.95-0.4c0.01,1.07,0.02,2.14,0.03,3.2c0.02,1.93,3.02,1.93,3,0c-0.01-1.07-0.02-2.14-0.03-3.2
			c-0.02-1.76-2.38-1.95-2.95-0.4c-3.12,8.56-6.77,16.91-10.96,25c-2.05,3.96-4.23,7.86-6.52,11.69c-0.53,0.88-1.02,1.92-1.81,2.6
			c-0.56,0.49-1.26,0.74-1.94,1.01c-1.57,0.63-2.87,1.36-3.47,3.04c-0.18,0.51,0.04,1.09,0.39,1.46c2.69,2.91,6.64-0.11,8.76-2.14
			c2.87-2.76,5.1-6.14,6.98-9.63c2.04-3.77,3.77-7.71,5.57-11.6c2.04-4.42,4.07-8.85,6.09-13.28c0.55-1.2,1.09-2.4,1.64-3.61
			c0.5-1.09,1.27-2.3,1.54-3.48c0.29-1.26-0.4-2.06-1.33-2.78c-1.05-0.81-2.11-1.62-3.17-2.43C113.59,76,112.09,78.61,113.6,79.77
			L113.6,79.77z"/>
	</g>
</g>
<g>
	<g>
		<path class="st6" d="M97.77,127.61c5.5-6.61,9.91-13.99,13.85-21.6c1.98-3.83,3.87-7.71,5.74-11.6c1.92-3.98,3.68-7.96,4.24-12.38
			c-0.98,0.13-1.96,0.27-2.95,0.4c0.56,1.58,2.45,2.75,2.1,4.51c-0.43,2.13-1.45,4.29-2.22,6.31c-1.55,4.05-3.3,8.02-5.23,11.91
			c-1.92,3.87-4.02,7.65-6.28,11.32c-1.17,1.9-2.39,3.77-3.65,5.62c-0.3,0.44-3.01,4.53-3.48,3.83c-0.08,0.61-0.16,1.21-0.23,1.82
			c6.23-5.01,9.47-12.62,12.96-19.61c3.64-7.27,6.98-14.74,8.98-22.64c0.47-1.87-2.42-2.67-2.89-0.8
			c-1.94,7.66-5.15,14.88-8.68,21.93c-3.38,6.76-6.46,14.15-12.5,19c-0.48,0.39-0.58,1.31-0.23,1.82c0.89,1.31,2.41,1.82,3.92,1.33
			c1.79-0.58,2.83-2.43,3.85-3.88c2.31-3.29,4.47-6.68,6.49-10.16c4.06-7,7.52-14.36,10.34-21.94c0.73-1.96,1.86-4.2,1.95-6.32
			c0.04-1-0.27-1.95-0.83-2.76c-0.47-0.68-1.19-1.28-1.47-2.08c-0.59-1.67-2.74-1.26-2.95,0.4c-0.54,4.3-2.55,8.24-4.41,12.08
			c-1.75,3.61-3.51,7.22-5.36,10.78c-3.77,7.24-7.94,14.32-13.18,20.6C94.42,126.96,96.53,129.1,97.77,127.61L97.77,127.61z"/>
	</g>
</g>
<g>
	<g>
		<path class="st7" d="M104.63,128.24c3.2-1.35,4.63-5.55,6.14-8.39c2.06-3.88,4.13-7.76,6.19-11.64
			c3.83-7.19,8.23-14.24,8.36-22.64c-0.98,0.13-1.96,0.27-2.95,0.4c0.56,1.57,1.69,2.51,2.69,3.77c1.26,1.59,0.25,3.38-0.41,5.02
			c-1.59,3.95-3.18,7.9-4.88,11.8c-1.69,3.87-3.48,7.7-5.46,11.43c-0.94,1.77-1.91,3.54-2.96,5.25c-0.58,0.94-2.23,3.39-3.6,2.18
			c0,0.71,0,1.41,0,2.12c4.38-3.57,7.56-8.4,9.22-13.79c0.51-1.65-1.87-2.59-2.74-1.16c-1.49,2.46-3.14,4.8-5,6.99
			c0.79,0.61,1.57,1.21,2.36,1.82c2.57-5.13,5.3-10.17,8.19-15.12c-0.86-0.5-1.73-1.01-2.59-1.51c-1.27,2.22-2.21,4.6-2.77,7.1
			c-0.37,1.62,1.87,2.67,2.74,1.16c4.19-7.27,7.34-15.11,9.34-23.26c0.46-1.88-2.43-2.68-2.89-0.8c-1.93,7.92-4.96,15.49-9.03,22.54
			c0.91,0.39,1.83,0.77,2.74,1.16c0.51-2.26,1.32-4.37,2.47-6.38c0.96-1.68-1.62-3.18-2.59-1.51c-2.89,4.95-5.62,10-8.19,15.12
			c-0.72,1.43,1.19,3.2,2.36,1.82c2.02-2.39,3.85-4.92,5.47-7.6c-0.91-0.39-1.83-0.77-2.74-1.16c-1.51,4.93-4.46,9.21-8.45,12.47
			c-0.6,0.49-0.56,1.63,0,2.12c1.45,1.28,3.45,1.46,5.17,0.56c1.93-1.01,3.01-3.08,4.06-4.89c2.51-4.33,4.71-8.84,6.75-13.4
			c2.03-4.55,3.91-9.17,5.77-13.8c0.86-2.14,1.94-4.44,0.91-6.73c-0.7-1.56-2.45-2.5-3.01-4.09c-0.55-1.55-2.92-1.36-2.95,0.4
			c-0.13,7.81-4.39,14.43-7.96,21.12c-1.87,3.51-3.74,7.03-5.61,10.54c-0.92,1.74-1.84,3.48-2.77,5.21
			c-0.71,1.32-1.43,2.59-2.87,3.2c-0.75,0.32-0.9,1.41-0.54,2.05C103.02,128.48,103.89,128.56,104.63,128.24L104.63,128.24z"/>
	</g>
</g>
<g>
	<g>
		<path class="st8" d="M114.53,127.2c4.15-4.64,6.48-10.6,9.11-16.16c1.43-3.02,2.86-6.05,4.29-9.07c1.33-2.81,2.64-5.54,2.15-8.72
			c-0.26-1.66-3.07-1.28-2.95,0.4c0.43,5.87,0.86,11.96-1.45,17.53c-1.99,4.8-5.56,8.76-9.51,12.04c0.84,0.49,1.67,0.97,2.51,1.46
			c2.79-6.81,5.98-13.44,9.54-19.87c-0.91-0.39-1.83-0.77-2.74-1.16c-0.98,4.96-2.35,9.88-5.44,13.98
			c-1.16,1.54,1.44,3.04,2.59,1.51c3.23-4.28,4.71-9.51,5.74-14.69c0.32-1.59-1.88-2.72-2.74-1.16c-3.68,6.67-6.95,13.54-9.84,20.59
			c-0.63,1.54,1.5,2.3,2.51,1.46c4.26-3.54,7.97-7.85,10.13-13c2.49-5.95,2.17-12.39,1.71-18.69c-0.98,0.13-1.96,0.27-2.95,0.4
			c0.42,2.73-1.46,5.6-2.58,7.96c-1.33,2.8-2.65,5.6-3.98,8.41c-2.37,5.01-4.48,10.48-8.23,14.67
			C111.12,126.51,113.24,128.64,114.53,127.2L114.53,127.2z"/>
	</g>
</g>
<g>
	<g>
		<path d="M69.08,110.22c1.15,3.99,3.67,7.32,6.65,10.15c3.16,3,6.66,5.71,10.74,7.33c4.1,1.63,8.56,2.19,12.93,2.46
			c4.48,0.28,9.28,0.72,13.69-0.26c4.39-0.98,7.98-3.96,11.35-6.78c1.67-1.4,3.22-2.98,4.18-4.96c0.99-2.03,1.46-4.23,1.94-6.43
			c1.07-4.97,2.04-10.06,1.78-15.17c-0.11-2.16-0.41-4.36-1.23-6.38c-0.85-2.1-2.24-3.87-3.79-5.51
			c-6.69-7.05-15.32-12.21-24.62-14.97c-1.85-0.55-2.65,2.34-0.8,2.89c7.49,2.22,14.47,6.07,20.3,11.29
			c2.98,2.67,5.91,5.51,6.77,9.57c0.92,4.36,0.31,9.06-0.48,13.39c-0.4,2.17-0.84,4.35-1.37,6.49c-0.49,1.98-1.15,3.9-2.51,5.47
			c-1.3,1.5-2.92,2.72-4.46,3.94c-1.59,1.26-3.25,2.48-5.09,3.34c-3.86,1.8-8.35,1.38-12.48,1.22c-3.95-0.15-7.92-0.39-11.76-1.37
			c-4.43-1.12-8.05-3.37-11.48-6.35c-3.21-2.78-6.17-6.02-7.37-10.18C71.44,107.57,68.54,108.36,69.08,110.22L69.08,110.22z"/>
	</g>
</g>
<g>
	<g>
		<path d="M71.76,108.21c-0.76-4.06-1.07-8.18-0.92-12.31c0.14-3.79,0.37-7.97,2.58-11.2c1-1.47,2.33-2.7,3.66-3.86
			c1.38-1.19,2.78-2.41,4.3-3.43c3.24-2.17,7.12-2.31,10.74-3.48c0.98-0.32,1.91-0.79,2.9-1.09c1.21-0.38,2.38-0.1,3.59,0.11
			c2.35,0.41,4.69,0.82,7.04,1.22c1.89,0.33,2.7-2.56,0.8-2.89c-2.27-0.39-4.54-0.79-6.81-1.18c-2.33-0.4-4.23-0.65-6.48,0.25
			c-3.9,1.57-8.29,1.72-12.02,3.71c-1.8,0.96-3.36,2.31-4.92,3.6c-1.53,1.26-3.04,2.56-4.3,4.1c-2.83,3.43-3.59,7.46-3.94,11.79
			c-0.41,5.17-0.07,10.37,0.89,15.47C69.22,110.91,72.12,110.1,71.76,108.21L71.76,108.21z"/>
	</g>
</g>
</svg>
