<?xml version="1.0" encoding="utf-8"?>
<!-- Generator: Adobe Illustrator 27.8.1, SVG Export Plug-In . SVG Version: 6.00 Build 0)  -->
<svg version="1.1" id="Layer_1" xmlns="http://www.w3.org/2000/svg" xmlns:xlink="http://www.w3.org/1999/xlink" x="0px" y="0px"
	 viewBox="0 0 200 200" style="enable-background:new 0 0 200 200;" xml:space="preserve">
<style type="text/css">
	.st0{fill:#FD0073;}
	.st1{fill:#FFFFFF;}
</style>
<g>
	<path class="st0" d="M61.26,79.48c-6.63-6.41-11.75-14.66-13.19-23.77s1.19-19.06,7.9-25.38c8.06-7.59,20.17-8.81,31.23-8.3
		c2.75,0.13,5.66,0.4,7.87,2.03c2.46,1.82,3.53,4.93,4.27,7.9c1.64,6.57,2.33,13.39,2.01,20.15c2.77-5.64,5.83-11.35,10.66-15.38
		c9.03-7.53,22.09-7.54,33.71-5.73c5.08,0.79,10.2,1.88,14.74,4.3c4.54,2.41,8.49,6.32,9.98,11.24c1.58,5.24,0.19,11.04-2.61,15.75
		c-2.8,4.71-6.89,8.5-11.05,12.06c12.77,7.33,23.92,18.83,27.26,33.17c3.34,14.34-3.03,31.35-16.58,37.13
		c-2.33,0.99-4.84,1.65-7.38,1.63c-6.72-0.05-12.43-4.67-17.53-9.06c-1.96,11.61-4.89,23.05-8.76,34.17
		c-0.81,2.34-1.74,4.78-3.62,6.39c-2.34,2.01-5.65,2.33-8.73,2.37c-16.02,0.19-32.05-5.23-44.67-15.09
		c-2.44-1.91-4.88-4.15-5.7-7.15c-0.6-2.17-0.27-4.47,0.09-6.68c1.13-6.98,2.57-13.91,4.3-20.77c-9.13,2.91-18.98,2-28.51,1.06
		c-3.11-0.31-6.28-0.62-9.17-1.83c-8.71-3.63-12.4-14.22-12.26-23.66c0.14-9.18,3.27-18.73,10.3-24.63c7.03-5.9,18.37-7,25.26-0.92"
		/>
	<g>
		<path d="M62.32,78.42c-5.68-5.54-10.25-12.36-12.19-20.13c-1.8-7.21-1.02-15.13,2.73-21.61c3.84-6.62,10.51-10.41,17.82-12.05
			c3.76-0.84,7.61-1.16,11.46-1.2c1.89-0.02,3.78,0.02,5.66,0.13c1.87,0.11,3.85,0.29,5.54,1.18c3.98,2.1,4.74,7.81,5.48,11.78
			c0.96,5.14,1.28,10.38,1.05,15.6c-0.06,1.45,2.14,2.1,2.8,0.76c3.24-6.58,6.9-13.3,13.4-17.16c5.96-3.54,13.07-4.39,19.88-4.17
			c3.6,0.11,7.18,0.53,10.74,1.12c4.02,0.68,8.11,1.57,11.82,3.32c6.39,3.02,11.48,8.7,11.09,16.13
			c-0.48,8.99-7.46,15.68-13.86,21.17c-0.74,0.63-0.48,1.9,0.3,2.36c12.6,7.27,24.05,18.83,26.85,33.59
			c2.38,12.53-2.86,27.41-14.65,33.41c-4.21,2.14-8.78,2.79-13.27,1.14c-4.3-1.58-7.92-4.68-11.35-7.62
			c-0.77-0.66-2.3-0.54-2.51,0.66c-1.57,9.25-3.74,18.4-6.52,27.37c-0.68,2.2-1.4,4.4-2.16,6.57c-0.62,1.78-1.26,3.67-2.49,5.13
			c-2.57,3.04-7.22,2.82-10.83,2.74c-8.31-0.18-16.54-1.91-24.26-4.95c-3.9-1.54-7.65-3.45-11.21-5.66
			c-3.33-2.07-7.02-4.39-9.5-7.49c-3.19-3.98-1.49-9.35-0.65-13.89c0.97-5.3,2.13-10.56,3.44-15.78c0.27-1.07-0.72-2.19-1.85-1.85
			c-8.75,2.72-17.98,1.99-26.96,1.12c-4.11-0.4-8.37-0.71-11.95-2.97c-2.71-1.71-4.72-4.28-6.16-7.11
			c-3.13-6.16-3.6-13.6-2.39-20.32c1.29-7.13,4.7-14.45,10.95-18.51c6.31-4.1,15.48-4.83,21.45,0.32c1.46,1.25,3.59-0.86,2.12-2.12
			c-5.98-5.16-14.53-5.62-21.63-2.6c-7.55,3.21-12.51,10.32-14.81,17.99c-2.23,7.44-2.4,15.87,0.21,23.24
			c1.23,3.46,3.07,6.76,5.72,9.32c3.02,2.92,6.8,4.48,10.91,5.12c5.42,0.84,11.01,1.27,16.49,1.41c5.67,0.14,11.39-0.31,16.83-2
			c-0.62-0.62-1.23-1.23-1.85-1.85c-1.26,4.99-2.36,10.01-3.31,15.07c-0.45,2.4-0.9,4.81-1.23,7.24c-0.31,2.29-0.41,4.66,0.45,6.85
			c1.53,3.92,5.15,6.55,8.46,8.91c3.69,2.63,7.64,4.91,11.76,6.79c8.11,3.71,16.85,5.96,25.76,6.56c4.13,0.28,8.85,0.61,12.75-1.06
			c4.12-1.77,5.62-5.83,6.97-9.78c3.68-10.77,6.47-21.82,8.37-33.04c-0.84,0.22-1.67,0.44-2.51,0.66c3.34,2.86,6.79,5.78,10.82,7.62
			c4.16,1.9,8.6,2.39,13.02,1.1c7.02-2.05,12.77-7.21,16.34-13.5c3.58-6.3,5.19-13.77,4.64-20.98c-0.6-7.8-3.79-15.27-8.36-21.56
			c-5.37-7.4-12.52-13.36-20.42-17.92c0.1,0.79,0.2,1.57,0.3,2.36c6.3-5.4,12.68-11.7,14.35-20.18c0.77-3.91,0.44-7.9-1.26-11.53
			c-1.57-3.36-4.26-6.12-7.29-8.21c-6.79-4.69-15.71-5.98-23.76-6.69c-7.57-0.67-15.46-0.25-22.49,2.87
			c-8.56,3.8-13.35,11.62-17.33,19.7c0.93,0.25,1.86,0.5,2.8,0.76c0.21-5.02-0.1-10.04-0.91-15c-0.71-4.27-1.5-9.22-4.33-12.67
			c-2.79-3.42-7.27-3.8-11.38-3.95c-4.25-0.16-8.51-0.02-12.73,0.58c-8.05,1.15-16,4.43-21.13,10.98c-5.05,6.47-6.97,15.03-5.9,23.1
			c1.3,9.8,6.72,18.57,13.71,25.38C61.58,81.89,63.7,79.77,62.32,78.42L62.32,78.42z"/>
	</g>
</g>
<g>
	<path class="st1" d="M112.08,71.94c-3.86-3.03-9.35-2.65-14.14-1.58c-3.33,0.75-6.64,1.77-9.56,3.53c-3.43,2.07-6.22,5.1-8.23,8.57
		c-5.21,8.99-4.82,20.67,0.06,29.84c1.64,3.08,3.77,5.93,6.47,8.13c4.18,3.4,9.5,5.07,14.8,6.03c4.85,0.88,9.81,1.23,14.72,0.82
		c3.81-0.32,7.67-1.13,10.9-3.18c3.14-1.99,5.49-5.03,7.32-8.27c4.99-8.84,6.29-20.26,1.31-29.11c-5.07-9-15.41-13.7-25.49-15.97"/>
	<g>
		<path d="M112.84,70.65c-5.31-4.01-12.86-2.63-18.75-0.83c-6.63,2.02-12.04,6.17-15.43,12.24c-6.42,11.49-4.38,27.01,4.26,36.83
			c4.66,5.29,11.38,7.79,18.16,9.03c7.15,1.3,15.18,1.83,22.2-0.42c6.53-2.1,10.93-7.35,13.73-13.43
			c2.73-5.91,3.97-12.53,3.05-19.01c-1.02-7.12-4.91-13.22-10.58-17.55c-5.49-4.2-12.15-6.66-18.84-8.18
			c-1.88-0.43-2.68,2.46-0.8,2.89c10.4,2.37,21.95,7.49,25.97,18.21c2.1,5.61,1.97,11.79,0.32,17.5
			c-1.57,5.46-4.61,11.44-9.45,14.68c-5.42,3.62-12.79,3.69-19.05,3.18c-6.26-0.5-12.97-1.79-18.31-5.27
			c-5.07-3.3-8.42-8.89-10.11-14.6c-1.69-5.69-1.79-11.84-0.02-17.53c1.99-6.4,6.49-11.95,12.72-14.61c3.21-1.37,6.84-2.3,10.32-2.6
			c3.23-0.29,6.45,0.06,9.11,2.07C112.87,74.4,114.37,71.8,112.84,70.65L112.84,70.65z"/>
	</g>
</g>
</svg>
